<svg width="27" height="33" viewBox="0 0 27 33" fill="none" xmlns="http://www.w3.org/2000/svg">
<mask id="mask0_192_319" style="mask-type:luminance" maskUnits="userSpaceOnUse" x="0" y="3" width="27" height="27">
<path d="M26.3481 3.64136H0.16626V29.8232H26.3481V3.64136Z" fill="white"/>
</mask>
<g mask="url(#mask0_192_319)">
<path d="M13.2579 13.7599C14.9454 13.7599 16.3158 12.3894 16.3158 10.7019C16.1471 6.64681 10.3686 6.64681 10.1999 10.7019C10.1999 12.3894 11.5704 13.7599 13.2579 13.7599ZM13.2579 8.17579C14.6488 8.17579 15.784 9.31101 15.784 10.7019C15.6459 14.0514 10.8698 14.0514 10.7318 10.7019C10.7318 9.31101 11.867 8.17579 13.2579 8.17579ZM7.8272 12.098H8.5738C8.67092 12.4201 8.7988 12.7321 8.95728 13.0287L8.43062 13.5553C8.21069 13.7753 8.21069 14.1332 8.43062 14.3531L9.60676 15.5292C9.81637 15.7491 10.1948 15.7491 10.4045 15.5292L10.9311 15.0025C11.2277 15.161 11.5397 15.294 11.8618 15.386V16.1326C11.8618 16.4446 12.1124 16.6951 12.4243 16.6951H14.0914C14.4033 16.6951 14.6539 16.4446 14.6539 16.1326V15.386C14.9761 15.2889 15.2829 15.161 15.5846 15.0025L16.1164 15.5292C16.3261 15.7491 16.7045 15.7491 16.9141 15.5292L18.0902 14.3531C18.3102 14.1434 18.3102 13.765 18.0902 13.5553L17.5636 13.0287C17.7221 12.7321 17.855 12.4201 17.9471 12.098H18.6936C19.0056 12.098 19.2561 11.8474 19.2561 11.5355V9.8684C19.2561 9.55647 19.0056 9.3059 18.6936 9.3059H17.9471C17.8499 8.98374 17.7221 8.67181 17.5636 8.37522L18.0902 7.84851C18.3102 7.63885 18.3102 7.26044 18.0902 7.05079L16.9141 5.87465C16.6943 5.65476 16.3363 5.65476 16.1164 5.87465L15.5846 6.40135C15.288 6.24283 14.9761 6.10988 14.6539 6.01783V5.27124C14.6539 4.95931 14.4033 4.70874 14.0914 4.70874H12.4243C12.1124 4.70874 11.8618 4.95931 11.8618 5.27124V6.01783C11.5397 6.11499 11.2277 6.24283 10.9311 6.40135L10.3993 5.86954C10.1795 5.64965 9.82153 5.64965 9.6016 5.86954L8.42546 7.04567C8.20562 7.26556 8.20562 7.62351 8.42546 7.8434L8.95221 8.3701C8.79365 8.66669 8.66585 8.97863 8.56865 9.30079H7.82209C7.51016 9.30079 7.25959 9.55135 7.25959 9.86329V11.5303C7.25959 11.8474 7.51527 12.098 7.8272 12.098ZM7.79141 9.8684C7.79141 9.84794 7.80675 9.8326 7.8272 9.8326H8.77835C8.90107 9.8326 9.00335 9.75079 9.03403 9.63317C9.1363 9.22408 9.29994 8.83033 9.51978 8.46726C9.58115 8.36499 9.56585 8.23204 9.47887 8.1451L8.80387 7.47522C8.78857 7.45988 8.78857 7.43942 8.80387 7.42919L9.98001 6.25306C9.99539 6.23772 10.0158 6.24283 10.0261 6.25306L10.7011 6.92294C10.788 7.00988 10.9209 7.02522 11.0232 6.96385C11.3863 6.74397 11.78 6.58544 12.1891 6.47806C12.3068 6.44738 12.3886 6.33999 12.3886 6.22238V5.27124C12.3886 5.25079 12.4039 5.23544 12.4243 5.23544H14.0914C14.1118 5.23544 14.1272 5.25079 14.1272 5.27124V6.22238C14.1272 6.3451 14.209 6.44738 14.3266 6.47806C14.7357 6.58033 15.1295 6.74397 15.4925 6.96385C15.5948 7.02522 15.7329 7.00988 15.8147 6.92294L16.4897 6.24794C16.505 6.2326 16.5255 6.23772 16.5357 6.24794L17.7118 7.42408V7.4701L17.042 8.1451C16.955 8.23204 16.9397 8.36499 17.0011 8.46726C17.2209 8.83033 17.3846 9.22408 17.4868 9.63317C17.5175 9.75079 17.6198 9.8326 17.7425 9.8326H18.6936C18.7141 9.8326 18.7295 9.84794 18.7295 9.8684V11.5355C18.7295 11.5559 18.7141 11.5712 18.6936 11.5712H17.7425C17.6198 11.5712 17.5124 11.6531 17.4868 11.7707C17.3846 12.1798 17.2209 12.5735 17.0011 12.9366C16.9397 13.0389 16.955 13.1718 17.042 13.2587L17.7118 13.9287V13.9746L16.5357 15.1508L16.7249 15.34C16.5561 15.2378 15.9681 14.6292 15.8147 14.4809C15.7277 14.394 15.5948 14.3787 15.4925 14.44C15.1243 14.6599 14.7357 14.8235 14.3266 14.9258C14.209 14.9565 14.1272 15.0639 14.1272 15.1815V16.1326C14.1272 16.1531 14.1118 16.1684 14.0914 16.1684H12.4243C12.4039 16.1684 12.3886 16.1531 12.3886 16.1326V15.1815C12.3886 15.0587 12.3068 14.9514 12.1891 14.9258C11.78 14.8235 11.3863 14.6599 11.0232 14.44C10.9209 14.3787 10.788 14.394 10.7011 14.4809L10.0311 15.1508L10.2204 15.34C10.0772 15.2684 8.95221 14.1178 8.80903 13.9746C8.79365 13.9593 8.79365 13.9389 8.80903 13.9287L9.47887 13.2587C9.56585 13.1718 9.58115 13.0389 9.51978 12.9366C9.29994 12.5735 9.14137 12.1798 9.03403 11.7707C9.00335 11.6531 8.89592 11.5712 8.77835 11.5712H7.8272C7.80675 11.5712 7.79141 11.5559 7.79141 11.5355V9.8684ZM18.2743 20.5303C18.2743 20.5355 18.2743 20.5355 18.2743 20.5303V20.5303ZM26.2568 21.3485C26.18 21.0059 25.9857 20.7093 25.7454 20.4996C26.0573 20.2951 26.2618 19.9218 26.2618 19.5025C26.2925 19.2775 26.1391 19.0576 25.909 19.0576C25.5357 19.0832 24.692 18.9707 24.3698 19.1957L23.5414 17.5593C23.255 16.9968 22.713 16.6491 22.1198 16.6491H17.3232C16.6431 16.6389 16.055 17.1246 15.7943 17.769H10.9721C10.8954 17.769 10.8238 17.7741 10.7471 17.7843C10.4863 17.1349 9.89312 16.6337 9.20789 16.6491H4.41129C3.81811 16.6491 3.27095 16.9968 2.98459 17.5593L2.15618 19.1957C1.83402 18.9707 0.985156 19.078 0.616978 19.0576C0.386865 19.0525 0.238569 19.2775 0.269251 19.5025C0.269251 19.9218 0.473796 20.2951 0.780615 20.4996C0.550501 20.6991 0.36641 20.9803 0.279478 21.3025C0.0953873 21.7934 0.42266 22.9287 0.47891 23.4349V25.6798C0.47891 26.0787 0.785728 26.4059 1.15902 26.4059H2.34538C2.67777 26.4059 2.95902 26.1502 3.02038 25.8127H6.54368V27.9655C6.54368 28.4002 6.87607 28.753 7.28005 28.753H8.62494C8.99312 28.753 9.29994 28.4616 9.35615 28.0832H18.0136C18.0647 28.4616 18.3715 28.753 18.7448 28.753H20.0897C20.4988 28.753 20.8311 28.4002 20.8311 27.9655V25.8127H23.5056C23.567 26.1502 23.8431 26.4059 24.1806 26.4059H25.367C25.7454 26.4059 26.0522 26.0787 26.0522 25.6798V23.4196C26.1033 22.944 26.4102 21.819 26.2568 21.3485ZM24.8965 19.5894H25.7249C25.6891 19.9014 25.4539 20.1468 25.1727 20.1468C25.1471 20.1468 24.8658 20.1468 24.8454 20.1417L24.605 19.6712C24.692 19.6201 24.7943 19.5894 24.8965 19.5894ZM17.313 17.186H22.1096C22.4982 17.186 22.8613 17.4212 23.0607 17.8048C23.0607 17.8048 24.0272 19.7071 24.0272 19.7121C24.0527 19.7787 24.2113 20.0752 24.2471 20.1468L24.242 20.1417H18.6681L17.9777 18.7815C17.6761 18.1883 17.0471 17.7639 16.3772 17.769C16.5818 17.4059 16.9346 17.186 17.313 17.186ZM10.9618 18.3059H16.4027C16.8579 18.3059 17.2823 18.5821 17.5124 19.0269C17.855 19.7019 18.5454 21.0621 18.888 21.7321H8.48176C8.63001 21.4405 8.94198 20.8269 9.09024 20.5355C9.5863 19.7275 9.8113 18.3417 10.9618 18.3059ZM17.7118 23.0718C17.3846 23.1996 17.1443 23.486 17.0318 23.8184C17.0368 23.798 17.042 23.7826 17.0522 23.7621C17.0266 23.8287 17.0061 23.8951 16.9959 23.9616C17.0061 23.9156 17.0164 23.8644 17.0368 23.8184C17.0215 23.8644 17.0061 23.9156 16.9959 23.9616V23.9565H10.3738C10.1181 22.7139 8.45107 22.673 8.14425 23.9053C7.63288 23.7724 7.17778 23.4553 6.85562 23.0412C7.01926 22.5298 7.51016 22.2127 8.04709 22.2485C8.04197 22.2485 8.03175 22.2485 8.02663 22.2434C8.15447 22.2434 8.28228 22.2485 8.41016 22.2485H15.559H19.2102C19.7727 22.1923 20.3402 22.4837 20.509 23.0462C20.1255 23.4298 19.7573 23.7621 19.2152 23.9053C19.0925 23.2508 18.3408 22.8315 17.7118 23.0718ZM18.7243 24.2275C18.7039 25.1582 17.5124 25.1582 17.492 24.2326C17.5124 23.3019 18.7039 23.2968 18.7243 24.2275ZM9.86751 24.2275C9.84706 25.1582 8.66069 25.1582 8.63516 24.2326C8.65562 23.3019 9.84706 23.2968 9.86751 24.2275ZM2.47834 19.7275C2.47322 19.7121 3.44993 17.8201 3.44993 17.8048C3.64425 17.4212 4.00731 17.186 4.40106 17.186H9.19766C9.64251 17.1758 10.0414 17.5133 10.2204 17.948C9.38175 18.403 9.11585 19.3593 8.6863 20.1468H2.26868L2.47834 19.7275ZM1.61925 19.5894C1.72152 19.5894 1.81868 19.6201 1.91072 19.6764L1.67038 20.1468C1.66016 20.1519 1.36356 20.1519 1.34311 20.1519C1.06186 20.1519 0.826633 19.9065 0.790842 19.5946H1.61925V19.5894ZM2.34027 25.8741H1.15391C0.954474 25.869 1.01072 25.5366 1.0005 25.4037C1.16413 25.5928 1.38402 25.736 1.62436 25.7871C1.77777 25.8332 2.27891 25.8076 2.44766 25.8127C2.42209 25.8537 2.38118 25.8741 2.34027 25.8741ZM1.85447 25.286C1.51697 25.286 1.26641 24.9741 1.22038 24.6571L1.0005 23.353C1.0005 23.3377 0.99027 23.3224 0.99027 23.3071L0.780615 22.0491C1.10277 22.315 1.47606 22.5093 1.88516 22.6014C2.10504 23.7621 3.64936 23.7928 3.91527 22.6423H6.46186C6.41072 22.7446 6.35959 22.8519 6.33402 22.9644H5.98118C5.38288 22.9644 4.85618 23.2764 4.65675 23.7315L4.33459 24.4832C4.29879 24.565 4.30902 24.6571 4.36016 24.7337C4.40618 24.8105 4.49311 24.8514 4.58004 24.8514H6.45163L6.52323 25.2707H1.85447V25.286ZM2.38629 22.3815C2.38118 21.9571 2.79027 21.6451 3.138 21.8599C3.56754 22.1258 3.45504 22.9696 2.89254 22.9696C2.61641 22.9746 2.38629 22.7087 2.38629 22.3815ZM3.93061 22.2485C3.95107 22.3815 3.94084 22.5196 3.91016 22.6474C3.93572 22.5196 3.94084 22.3815 3.93061 22.2485ZM6.24709 23.6548C6.2522 23.7928 6.33402 24.1968 6.35447 24.3349H4.97379L5.13743 23.9514C5.24993 23.6905 5.59254 23.5065 5.97095 23.5065H6.24198C6.24198 23.5525 6.24709 23.6037 6.24709 23.6548ZM3.91016 22.1207C3.92038 22.1616 3.9255 22.2076 3.93061 22.2485C3.78743 21.0571 2.24311 20.9241 1.9005 22.0644C1.48118 21.9417 1.08743 21.686 0.81641 21.3383C0.954474 20.965 1.27152 20.7093 1.62436 20.6787H8.41524C8.31296 20.9394 7.89369 21.5071 7.74028 21.7371C7.43346 21.773 7.09596 21.8855 6.87096 22.1156H3.91016V22.1207ZM8.62494 28.2264H7.27493C6.98856 28.2162 7.08061 27.7508 7.07038 27.5616C7.46413 28.1446 8.19539 28.1139 8.80903 28.0883C8.77319 28.1701 8.7016 28.2264 8.62494 28.2264ZM20.2943 27.9707C20.2943 28.1087 20.1971 28.2264 20.0846 28.2264H18.7397C18.6579 28.2264 18.5914 28.1701 18.5556 28.0883C18.5709 28.119 18.9033 28.0832 18.9443 28.0832C19.4454 28.1241 20.0079 28.0116 20.2993 27.5616V27.9707H20.2943ZM20.5602 23.7928C20.4783 24.3093 20.3863 24.8258 20.2993 25.3423L20.0488 26.815C19.9772 27.2446 19.6602 27.5565 19.2971 27.5565H8.07266C7.70448 27.5565 7.38744 27.2446 7.31585 26.815C7.22891 26.3087 7.01413 25.0508 6.93232 24.565L6.79936 23.7673C7.17266 24.1048 7.638 24.3553 8.13403 24.4576C8.35903 25.7667 10.1079 25.8025 10.3738 24.4985H16.9959L16.9908 24.4934C16.9704 24.4065 16.9652 24.3196 16.9652 24.2275C16.9908 25.7053 18.9493 25.9303 19.2357 24.4525C19.7266 24.3502 20.1818 24.0996 20.5652 23.7673L20.5602 23.7928ZM20.4886 22.1207C20.2124 21.8599 19.8443 21.7678 19.4761 21.7321C19.4761 21.7321 18.9443 20.6787 18.9391 20.6787L18.9443 20.6837H24.8914C25.2443 20.7144 25.5613 20.9753 25.6993 21.3434C25.4079 21.6553 25.0499 21.9724 24.6204 22.0696C24.5846 21.9519 24.5386 21.8394 24.467 21.7371V21.7423C23.9556 20.9548 22.7846 21.2258 22.6005 22.1258C22.6056 22.1207 20.4886 22.1207 20.4886 22.1207ZM24.5283 21.8343C24.5181 21.8087 24.5027 21.7883 24.4874 21.7628C24.5027 21.7883 24.513 21.8139 24.5283 21.8343ZM24.1295 22.3815C24.1193 23.1587 23.117 23.1587 23.1068 22.3815C23.117 21.6196 24.1039 21.5837 24.1295 22.3815ZM25.5152 25.6798C25.5152 25.7871 25.4488 25.8741 25.3618 25.8741H24.1755C24.1346 25.8741 24.0936 25.8485 24.0681 25.8127C24.2522 25.8025 24.7431 25.8383 24.9118 25.7821C25.1471 25.7309 25.3618 25.5877 25.5152 25.4037V25.6798ZM25.5306 23.3071C25.5306 23.3224 25.5204 23.3377 25.5204 23.353L25.3005 24.6571C25.2391 25.0201 24.9732 25.286 24.6664 25.286H20.8516L20.9232 24.8667H21.9459C22.13 24.8718 22.2681 24.6673 22.1914 24.4985L21.8693 23.7468C21.7363 23.4298 21.4397 23.1843 21.0613 23.0616H21.0664C21.0306 22.9235 20.9795 22.7803 20.913 22.6576H22.6107C22.8766 23.8082 24.4158 23.7724 24.6408 22.6167C25.0397 22.5144 25.4232 22.3303 25.7402 22.0644L25.5306 23.3071ZM21.0102 24.3349C21.0306 24.1968 21.1073 23.7928 21.1124 23.6599C21.3579 23.7826 21.4397 24.115 21.542 24.3349H21.0102ZM23.0352 21.4508C23.0402 21.4508 23.0402 21.4508 23.0352 21.4508V21.4508ZM1.09766 22.2843C1.13857 22.3099 1.17436 22.3303 1.21527 22.3508C1.15391 22.3201 1.09766 22.2894 1.04652 22.2485C1.05675 22.2587 1.0772 22.269 1.09766 22.2843ZM3.18402 21.3025C3.18913 21.2974 3.18913 21.3025 3.19425 21.3025C3.19425 21.3025 3.19425 21.3025 3.18913 21.3076C3.18402 21.3025 3.18402 21.3025 3.18402 21.3025ZM16.0908 25.7821C15.8761 25.2758 15.288 24.9383 14.6232 24.9383H12.7414C12.0766 24.9383 11.4886 25.2758 11.2738 25.7821L10.9107 26.6412C10.834 26.8099 10.9721 27.0144 11.1561 27.0093H16.2136C16.3977 27.0144 16.5357 26.8099 16.459 26.6412C16.4539 26.6412 16.0908 25.7821 16.0908 25.7821ZM11.555 26.4775L11.7596 25.9917C11.8925 25.6798 12.2965 25.465 12.7414 25.465H14.6232C15.0681 25.465 15.4721 25.6798 15.5999 25.9917L15.8045 26.4775H11.555Z" fill="black"/>
<path d="M13.2555 13.3345C14.7231 13.3345 15.9128 12.1447 15.9128 10.6771C15.9128 9.20951 14.7231 8.01978 13.2555 8.01978C11.7879 8.01978 10.5981 9.20951 10.5981 10.6771C10.5981 12.1447 11.7879 13.3345 13.2555 13.3345Z" stroke="#3DBEC8" stroke-width="0.818182"/>
</g>
</svg>
