<?xml version="1.0" encoding="UTF-8"?>
<svg id="Layer_1" data-name="Layer 1" xmlns="http://www.w3.org/2000/svg" viewBox="0 0 500 500">
  <defs>
    <style>
      .cls-1 {
        fill: #010101;
      }
    </style>
  </defs>
  <g>
    <path class="cls-1" d="M400.51,444.05c-1.62-.06-3.15-.44-4.55-1.08,1.37.58,2.9,1,4.55,1.08Z"/>
    <path class="cls-1" d="M114.36,95c-4.12-1.46-8.54-2.25-13.15-2.25-3.88,0-7.63.56-11.17,1.61-16.37,4.83-28.34,19.99-28.34,37.9s11.97,33.08,28.34,37.91c3.54,1.05,7.29,1.61,11.17,1.61,4.61,0,9.03-.79,13.15-2.25,15.35-5.43,26.37-20.09,26.37-37.27s-11.02-31.83-26.37-37.26ZM116.08,147.19c-.55.57-1.12,1.1-1.72,1.59-3.71,3.09-8.3,4.76-13.15,4.76-4.05,0-7.89-1.19-11.17-3.23-6.18-3.84-10.39-10.69-10.39-18.32s4.17-14.55,10.39-18.27c3.19-1.91,6.91-3,10.89-3,5.09,0,9.77,1.79,13.43,4.78,4.79,3.9,7.85,9.85,7.85,16.49,0,5.73-2.18,11.13-6.13,15.2Z"/>
    <g>
      <path class="cls-1" d="M413.17,244.48c-4.33-.68-8.83-1.03-13.47-1.03-3.67,0-7.3.28-10.85.81-36.64,5.49-65.83,38.26-65.83,76.42,0,41.54,36.35,83.23,62.89,113.68l3.31,3.79s2.65,3.08,6.66,4.79c.02.01.05.02.08.03,1.37.58,2.9,1,4.55,1.08.21.01.42.02.63.02h.46c6.78,0,11.84-5.86,11.87-5.9,40.83-46.93,61.53-86.47,61.53-117.49,0-40.71-24.81-70.43-61.83-76.2ZM413.17,410.06c-3.71,4.65-7.66,9.4-11.84,14.25l-1.68-1.94c-3.46-3.97-7.1-8.15-10.8-12.49-22.66-26.58-47.59-59.37-47.59-89.2,0-28.24,20.88-52.63,47.59-57.93,3.53-.7,7.15-1.07,10.85-1.07,4.81,0,9.3.44,13.47,1.27,29.99,5.96,43.59,31.95,43.59,57.73,0,23.13-14.64,53.15-43.59,89.38Z"/>
      <path class="cls-1" d="M413.17,282.81c-4.34-1.64-9.04-2.54-13.94-2.54-3.59,0-7.07.48-10.38,1.39-16.78,4.57-29.14,19.93-29.14,38.12s12.36,33.56,29.14,38.13c3.31.91,6.79,1.39,10.38,1.39,4.9,0,9.6-.9,13.94-2.54,14.93-5.65,25.57-20.1,25.57-36.98s-10.64-31.32-25.57-36.97ZM414.1,334.72c-.3.31-.61.61-.93.89-3.84,3.53-8.74,5.45-13.94,5.45-3.74,0-7.28-1.01-10.38-2.77-6.61-3.72-11.18-10.83-11.18-18.77s4.53-15.13,11.18-18.73c3.01-1.63,6.45-2.55,10.1-2.55,5.47,0,10.45,2.06,14.22,5.46,4.33,3.9,7.06,9.55,7.06,15.82,0,5.72-2.18,11.12-6.13,15.2Z"/>
    </g>
  </g>
  <path class="cls-1" d="M388.85,83.61c-15.81-16.42-38.01-26.65-62.54-26.65s-46.74,10.23-62.55,26.65c-14.48,15.04-23.61,35.27-24.26,57.59-20.68,4.77-36.14,23.33-36.14,45.44s15.43,40.64,36.09,45.43v35.86c-20.66,4.79-36.09,23.34-36.09,45.43s15.42,40.63,36.07,45.43c-.84,33.76-28.58,60.96-62.53,60.96s-62.54-28.05-62.54-62.54v-105.46c.7-.64,1.08-1.09,1.09-1.1,40.83-46.93,61.53-86.47,61.53-117.49,0-45.22-30.61-76.88-74.56-77.22-.11-.01-.23-.01-.34-.01h-.39c-41.56,0-76.69,35.37-76.69,77.23s36.36,83.23,62.9,113.67l2.14,2.46v107.92c0,23.36,9.26,44.58,24.32,60.21,15.8,16.43,37.99,26.65,62.54,26.65s46.74-10.22,62.55-26.65c14.89-15.47,24.12-36.41,24.3-59.49,19.03-5.88,32.89-23.63,32.89-44.57s-13.86-38.69-32.88-44.57v-37.58c19.02-5.88,32.88-23.64,32.88-44.57s-13.85-38.67-32.86-44.56c.93-33.69,28.61-60.8,62.53-60.8s62.54,28.05,62.54,62.54v100.44c3.55-.53,7.18-.81,10.85-.81,4.64,0,9.14.35,13.47,1.03v-100.66c0-23.35-9.27-44.58-24.32-60.21ZM103.32,236.79l-1.68-1.95c-3.71-4.25-7.63-8.75-11.6-13.43-22.45-26.4-46.8-58.77-46.8-88.25s20.47-52.14,46.8-57.77c3.77-.8,7.67-1.23,11.65-1.23,4.51,0,8.73.39,12.67,1.12,30.54,5.65,44.39,31.88,44.39,57.88,0,23.34-14.91,53.69-44.39,90.38-3.47,4.33-7.16,8.75-11.04,13.25ZM276.64,313.36c0,9.66-5.16,18.13-12.88,22.8-4.02,2.44-8.73,3.84-13.76,3.84-3.74,0-7.31-.78-10.55-2.19-9.46-4.08-16.09-13.51-16.09-24.45s6.63-20.37,16.09-24.45c3.24-1.41,6.81-2.19,10.55-2.19,5.03,0,9.74,1.4,13.76,3.84,7.72,4.67,12.88,13.14,12.88,22.8ZM276.64,186.64c0,9.66-5.16,18.13-12.88,22.8-4.02,2.44-8.73,3.84-13.76,3.84-3.74,0-7.31-.78-10.55-2.19-9.46-4.08-16.09-13.51-16.09-24.45s6.63-20.37,16.09-24.45c3.24-1.41,6.81-2.19,10.55-2.19,5.03,0,9.74,1.4,13.76,3.84,7.72,4.67,12.88,13.14,12.88,22.8Z"/>
</svg>