<?xml version="1.0" encoding="UTF-8"?>
<svg id="Layer_1" data-name="Layer 1" xmlns="http://www.w3.org/2000/svg" viewBox="0 0 500 500">
  <defs>
    <style>
      .cls-1 {
        fill: #010101;
      }
    </style>
  </defs>
  <path class="cls-1" d="M251.07,32c-61.49,0-113.57,52.38-113.57,114.42s60.37,131.41,100.97,178.11c.16.19,6.72,7.47,14.8,7.47h.71c8.09,0,14.61-7.28,14.77-7.47,38.1-43.8,93.75-116.04,93.75-178.11s-40.62-114.42-111.43-114.42h0ZM254.83,311.95c-.33.33-.81.69-1.23,1-.43-.3-.9-.68-1.25-1l-4.9-5.64c-38.49-44.16-91.21-104.64-91.21-159.9,0-51.86,43.43-95.67,94.82-95.67,64.02,0,92.68,48.05,92.68,95.67,0,41.95-29.93,97.65-88.92,165.54h0ZM250.33,88.77c-31.06,0-56.25,25.18-56.25,56.25s25.19,56.25,56.25,56.25,56.25-25.19,56.25-56.25-25.18-56.25-56.25-56.25h0ZM250.33,182.52c-20.68,0-37.93-17.23-37.93-37.91s16.82-37.5,37.5-37.5,37.5,16.82,37.5,37.5c0,20.68-16.38,37.91-37.07,37.91Z"/>
  <g id="Complete">
    <g id="arrow-right">
      <g>
        <path class="cls-1" d="M343.74,478c-2.59,0-5.18-1-7.14-3-3.87-3.94-3.8-10.28.14-14.14l56-54.9-56-54.9c-3.94-3.87-4.01-10.2-.14-14.14,3.87-3.94,10.2-4.01,14.14-.14l63.28,62.04c1.92,1.88,3,4.45,3,7.14s-1.08,5.26-3,7.14l-63.28,62.04c-1.95,1.91-4.47,2.86-7,2.86Z"/>
        <path class="cls-1" d="M405.34,415.96H92.98c-5.52,0-10-4.48-10-10s4.48-10,10-10h312.37c5.52,0,10,4.48,10,10s-4.48,10-10,10Z"/>
      </g>
    </g>
  </g>
</svg>