<svg width="27" height="33" viewBox="0 0 27 33" fill="none" xmlns="http://www.w3.org/2000/svg">
<mask id="mask0_192_347" style="mask-type:luminance" maskUnits="userSpaceOnUse" x="0" y="3" width="27" height="27">
<path d="M26.4178 3.69385H0.235962V29.8757H26.4178V3.69385Z" fill="white"/>
</mask>
<g mask="url(#mask0_192_347)">
<path d="M17.6978 20.9925C20.4839 16.6207 20.1336 17.1661 20.2139 17.0522C21.2283 15.6214 21.7643 13.9376 21.7643 12.1825C21.7643 7.52805 17.9874 3.69385 13.3268 3.69385C8.68151 3.69385 4.88935 7.52049 4.88935 12.1825C4.88935 13.9365 5.43671 15.6644 6.4843 17.1144L8.95585 20.9925C6.31335 21.3986 1.82117 22.6088 1.82117 25.2734C1.82117 26.2447 2.45516 27.629 5.47547 28.7077C7.58444 29.4609 10.3728 29.8757 13.3268 29.8757C18.8509 29.8757 24.8325 28.3175 24.8325 25.2734C24.8325 22.6083 20.3456 21.3994 17.6978 20.9925ZM7.76572 16.2706C7.75728 16.2574 7.74849 16.2445 7.73928 16.2318C6.86756 15.0326 6.42344 13.6113 6.42344 12.1825C6.42344 8.34633 9.51238 5.22794 13.3268 5.22794C17.1334 5.22794 20.2302 8.34772 20.2302 12.1825C20.2302 13.6136 19.7945 14.9867 18.97 16.1543C18.896 16.2517 19.2816 15.6528 13.3268 24.9967L7.76572 16.2706ZM13.3268 28.3416C7.29306 28.3416 3.35526 26.568 3.35526 25.2734C3.35526 24.4033 5.37862 22.9725 9.86223 22.4148L12.68 26.8362C12.8208 27.0572 13.0648 27.191 13.3268 27.191C13.5889 27.191 13.8329 27.0571 13.9736 26.8362L16.7913 22.4148C21.2751 22.9725 23.2984 24.4033 23.2984 25.2734C23.2984 26.557 19.3961 28.3416 13.3268 28.3416Z" fill="#12182B"/>
<path d="M13.3268 8.34717C11.212 8.34717 9.49158 10.0676 9.49158 12.1824C9.49158 14.2971 11.212 16.0177 13.3268 16.0177C15.4416 16.0177 17.162 14.2971 17.162 12.1824C17.162 10.0676 15.4416 8.34717 13.3268 8.34717ZM13.3268 14.4836C12.058 14.4836 11.0257 13.4513 11.0257 12.1824C11.0257 10.9136 12.058 9.88126 13.3268 9.88126C14.5956 9.88126 15.6279 10.9136 15.6279 12.1824C15.6279 13.4513 14.5956 14.4836 13.3268 14.4836Z" fill="#3DBEC8"/>
</g>
</svg>
