<svg width="27" height="33" viewBox="0 0 27 33" fill="none" xmlns="http://www.w3.org/2000/svg">
<mask id="mask0_192_330" style="mask-type:luminance" maskUnits="userSpaceOnUse" x="0" y="2" width="27" height="28">
<path d="M27 2.93896H0V29.939H27V2.93896Z" fill="white"/>
</mask>
<g mask="url(#mask0_192_330)">
<path d="M19.3008 23.8218C19.0097 23.8218 18.7734 24.058 18.7734 24.3491C18.7734 24.6402 19.0097 24.8765 19.3008 24.8765C19.5919 24.8765 19.8281 24.6402 19.8281 24.3491C19.8281 24.058 19.5919 23.8218 19.3008 23.8218Z" fill="#3DBEC8"/>
<path d="M20.5992 22.1165L18.0928 21.2812L17.1929 19.4815C18.0036 18.6564 18.5664 17.5648 18.7562 16.4261L18.8684 15.7534H19.8281C20.7005 15.7534 21.4102 15.0437 21.4102 14.1714V10.8491C21.4102 6.48746 17.8617 2.93896 13.5 2.93896C9.12718 2.93896 5.58984 6.47729 5.58984 10.8491V14.1714C5.58984 14.8589 6.03075 15.445 6.64453 15.6627V16.2808C6.64453 17.1531 7.35423 17.8628 8.22656 17.8628H8.6897C8.91827 18.3594 9.21417 18.8193 9.5742 19.2325C9.64896 19.3183 9.72683 19.4016 9.80657 19.4825L8.9073 21.2812L6.40074 22.1166C3.48637 23.0884 1.37109 26.1563 1.37109 29.4116C1.37109 29.7029 1.60718 29.939 1.89844 29.939H25.1016C25.3927 29.939 25.6289 29.7029 25.6289 29.4116C25.6289 26.1563 23.5137 23.0884 20.5992 22.1165ZM20.3555 14.1714C20.3555 14.4621 20.1189 14.6987 19.8281 14.6987H19.0233C19.1573 13.6604 19.2467 12.5554 19.2826 11.4672C19.2837 11.4365 19.2845 11.4067 19.2854 11.3765H20.3555V14.1714ZM7.17188 14.6987C6.8811 14.6987 6.64453 14.4621 6.64453 14.1714V11.3765H7.71494C7.71668 11.4315 7.71851 11.4867 7.72057 11.5423C7.72062 11.5443 7.72073 11.5461 7.72079 11.548C7.72079 11.5478 7.72079 11.5482 7.72079 11.548C7.7577 12.6065 7.84587 13.6832 7.97686 14.6986L7.17188 14.6987ZM8.22656 16.8081C7.93579 16.8081 7.69922 16.5715 7.69922 16.2808V15.7534H8.13153L8.24376 16.4262C8.26516 16.5541 8.29148 16.6815 8.32191 16.8081H8.22656ZM7.70011 10.3218H6.66457C6.93167 6.78747 9.88124 3.99365 13.5 3.99365C17.1027 3.99365 20.0652 6.78709 20.3354 10.3218H19.2999C19.262 7.40942 16.8904 5.04834 13.972 5.04834H13.0281C10.1098 5.04834 7.73803 7.40942 7.70011 10.3218ZM13.028 6.10302H13.972C16.3349 6.10302 18.2474 8.03579 18.2461 10.3961C18.2461 10.5621 18.2447 10.7066 18.242 10.8381C18.242 10.8398 18.242 10.8414 18.242 10.8432L17.5823 10.749C15.7904 10.4931 14.0985 9.64715 12.8182 8.36686C12.7193 8.26799 12.5851 8.2124 12.4453 8.2124C11.0291 8.2124 9.67343 8.85766 8.77719 9.94778C8.99809 7.8005 10.8133 6.10302 13.028 6.10302ZM9.41515 16.8081C9.15123 15.9299 8.84917 13.3459 8.78234 11.6901L9.4921 10.7437C10.144 9.87486 11.1581 9.33501 12.2369 9.27305C13.6563 10.6239 15.4927 11.5159 17.4332 11.793L18.2096 11.904C18.1577 13.0053 18.0516 14.1105 17.8996 15.127C17.8996 15.1273 17.8996 15.1277 17.8996 15.128C17.8512 15.4548 17.8132 15.6652 17.7159 16.2526C17.4366 17.9277 16.1867 19.4425 14.5367 19.855C13.8577 20.0246 13.1423 20.0245 12.4635 19.855C11.4333 19.5975 10.4886 18.8846 9.87896 17.8628H10.954C11.1717 18.4765 11.7578 18.9175 12.4453 18.9175H13.5C14.374 18.9175 15.082 18.2096 15.082 17.3354C15.082 16.4631 14.3724 15.7534 13.5 15.7534H12.4453C11.7426 15.7534 11.165 16.2074 10.9531 16.8081H9.41515ZM12.4009 20.9222C12.7626 20.9984 13.1314 21.0374 13.5 21.0374C13.7885 21.0374 14.077 21.0133 14.3624 20.9664L13.4306 21.9519L12.4009 20.9222ZM12.7055 22.7185L11.033 24.4873C10.5724 23.6059 10.1768 22.6886 9.8523 21.7495L10.4804 20.4933L12.7055 22.7185ZM16.4303 20.3146L17.1476 21.7494C16.8226 22.6901 16.4268 23.6078 15.9668 24.4882L14.1766 22.6979L16.4303 20.3146ZM11.918 17.3354C11.918 17.0443 12.1541 16.8081 12.4453 16.8081H13.5C13.7908 16.8081 14.0273 17.0447 14.0273 17.3354C14.0273 17.6266 13.7912 17.8628 13.5 17.8628H12.4453C12.1546 17.8628 11.918 17.6262 11.918 17.3354ZM2.44688 28.8843C2.65586 26.2719 4.39446 23.8974 6.73429 23.1171L8.95413 22.3774C9.36082 23.5019 9.86462 24.5949 10.4551 25.6331C10.4561 25.6349 10.457 25.6368 10.458 25.6385C10.8895 26.3972 11.3751 27.1389 11.9015 27.8428L12.5503 28.8843H2.44688ZM13.5 28.4142L12.7848 27.266C12.7768 27.2531 12.7682 27.2406 12.7592 27.2285C12.3322 26.6589 11.9338 26.0631 11.5709 25.4534L13.4517 23.4645L15.4333 25.4462C15.068 26.0604 14.6683 26.6586 14.2409 27.2284C14.2151 27.2628 14.2517 27.2086 13.5 28.4142ZM14.4497 28.8843L15.0984 27.8429C15.6272 27.1363 16.1162 26.3888 16.552 25.6211C16.5546 25.6164 16.5572 25.6117 16.5598 25.6071C16.5601 25.6065 16.5604 25.606 16.5607 25.6054C17.1437 24.577 17.6422 23.4935 18.046 22.3774L20.2657 23.1171C22.6055 23.8974 24.3441 26.2719 24.5531 28.8843H14.4497Z" fill="black"/>
<path d="M22.9682 26.7499C22.6158 26.0445 22.0995 25.4178 21.4753 24.9376C21.2445 24.7599 20.9134 24.8031 20.7359 25.034C20.5583 25.2649 20.6015 25.5959 20.8322 25.7735C21.3308 26.1571 21.7431 26.6577 22.0246 27.2213C22.1551 27.4823 22.472 27.5873 22.732 27.4574C22.9926 27.3272 23.0983 27.0104 22.9682 26.7499Z" fill="#3DBEC8"/>
</g>
</svg>
