<svg width="20" height="21" viewBox="0 0 20 21" fill="none" xmlns="http://www.w3.org/2000/svg">
<g clip-path="url(#clip0_192_184)">
<mask id="mask0_192_184" style="mask-type:luminance" maskUnits="userSpaceOnUse" x="0" y="0" width="20" height="20">
<path d="M19.2295 0.935547H0.229492V19.9355H19.2295V0.935547Z" fill="white"/>
</mask>
<g mask="url(#mask0_192_184)">
<path d="M17.4992 8.57419L11.252 2.327C10.3631 1.43309 9.1534 0.932004 7.89273 0.935566H3.07943C2.20543 0.936635 1.49717 1.6449 1.49609 2.5189V19.6189C1.49609 19.7938 1.63789 19.9356 1.81277 19.9356H11.1348C11.9459 19.9356 12.6923 19.4925 13.0807 18.7804C13.9388 17.2057 15.2328 15.9117 16.8076 15.0535C17.5197 14.6651 17.9627 13.9188 17.9628 13.1076V9.69359C17.9639 9.27359 17.797 8.87045 17.4992 8.57419ZM17.3294 13.1076C17.3295 13.6871 17.013 14.2204 16.5042 14.4978C14.8226 15.4138 13.4409 16.7954 12.525 18.477C12.2475 18.9858 11.7143 19.3023 11.1348 19.3023H2.12943V2.5189C2.12943 1.99422 2.55475 1.5689 3.07943 1.5689H7.89273C8.9852 1.56593 10.0335 2.00016 10.8039 2.77477L17.0514 9.02199C17.2288 9.20052 17.3288 9.44185 17.3294 9.69359V13.1076Z" fill="#616161"/>
<path d="M15.9699 8.94492L10.2474 3.22246C9.59567 2.56704 8.70874 2.19967 7.7844 2.20216H3.7127C3.18802 2.20216 2.7627 2.62748 2.7627 3.15216V9.16885C2.7627 9.34372 2.90448 9.48552 3.07936 9.48552H15.746C15.8741 9.48552 15.9896 9.40845 16.0386 9.29012C16.0877 9.17179 16.0605 9.03552 15.9699 8.94492ZM10.996 8.85219H3.39603V3.15216C3.39603 2.97728 3.53782 2.83549 3.7127 2.83549H7.7844C8.54067 2.83344 9.26634 3.13399 9.79967 3.67023L10.996 4.86659V8.85219ZM11.6294 8.85219V5.49993L14.9816 8.85219H11.6294Z" fill="#616161"/>
<path d="M15.1127 10.4355H13.2127C12.688 10.4355 12.2627 10.8609 12.2627 11.3856C12.2627 11.9103 12.688 12.3356 13.2127 12.3356H15.1127C15.6374 12.3356 16.0627 11.9103 16.0627 11.3856C16.0627 10.8609 15.6374 10.4355 15.1127 10.4355ZM15.1127 11.7022H13.2127C13.0378 11.7022 12.896 11.5605 12.896 11.3856C12.896 11.2107 13.0378 11.0689 13.2127 11.0689H15.1127C15.2876 11.0689 15.4294 11.2107 15.4294 11.3856C15.4294 11.5605 15.2876 11.7022 15.1127 11.7022Z" fill="#616161"/>
</g>
</g>
<defs>
<clipPath id="clip0_192_184">
<rect width="20" height="20" fill="white" transform="translate(0 0.719971)"/>
</clipPath>
</defs>
</svg>
