<svg width="20" height="21" viewBox="0 0 20 21" fill="none" xmlns="http://www.w3.org/2000/svg">
<path d="M15.0071 14.0722L14.3276 13.517L13.5107 10.8471C13.4723 10.7231 13.4027 10.611 13.3086 10.5215C13.2145 10.432 13.0991 10.3681 12.9733 10.336C11.8555 10.07 10.7096 9.94036 9.56065 9.94996C8.41178 9.94036 7.26592 10.07 6.14819 10.336C6.02219 10.368 5.90655 10.432 5.81237 10.5216C5.71816 10.6112 5.64856 10.7235 5.61024 10.8477L4.79328 13.5177L4.11426 14.0722C3.97047 14.1893 3.85463 14.337 3.77518 14.5046C3.69574 14.6722 3.65468 14.8554 3.65503 15.0408V17.049C3.65547 17.2276 3.71914 17.4002 3.83473 17.5362C3.95031 17.6722 4.11034 17.7628 4.28643 17.7921V18.7936C4.28659 18.9678 4.35586 19.1348 4.47904 19.258C4.60221 19.3811 4.76923 19.4504 4.94343 19.4506H6.10712C6.28132 19.4504 6.44834 19.3811 6.57151 19.258C6.69472 19.1348 6.76399 18.9678 6.76412 18.7936V17.8048H12.3583V18.7934C12.3585 18.9676 12.4278 19.1346 12.5511 19.2579C12.6742 19.381 12.8413 19.4504 13.0155 19.4506H14.1789C14.3531 19.4504 14.5201 19.381 14.6433 19.2579C14.7665 19.1346 14.8358 18.9676 14.836 18.7934V17.7921C15.0121 17.7628 15.1721 17.6722 15.2877 17.5362C15.4033 17.4002 15.4669 17.2276 15.4675 17.049V15.0408C15.4676 14.8553 15.4265 14.6721 15.3468 14.5044C15.2671 14.3368 15.1511 14.1891 15.0071 14.0722ZM6.24224 18.7936C6.24224 18.8297 6.22789 18.8642 6.20235 18.8898C6.17682 18.9154 6.14218 18.9297 6.10608 18.9297H4.94238C4.90627 18.9297 4.87164 18.9154 4.8461 18.8898C4.82057 18.8642 4.80622 18.8297 4.80622 18.7936V17.8048H6.24224V18.7936ZM14.178 18.9297H13.0151C12.9789 18.9297 12.9442 18.9153 12.9187 18.8898C12.8931 18.8642 12.8788 18.8295 12.8787 18.7934V17.8048H14.3147V18.7934C14.3147 18.8295 14.3003 18.8642 14.2748 18.8898C14.2493 18.9153 14.2142 18.9297 14.178 18.9297ZM14.9456 17.049C14.9456 17.1113 14.9209 17.171 14.8768 17.215C14.8328 17.259 14.7731 17.2838 14.7109 17.2839H4.4101C4.34784 17.2838 4.28816 17.259 4.24414 17.215C4.20012 17.171 4.17536 17.1113 4.17527 17.049V15.0408C4.17501 14.9326 4.19892 14.8257 4.24526 14.7279C4.2916 14.63 4.35921 14.5438 4.44313 14.4754L5.18391 13.8704C5.22371 13.8377 5.253 13.794 5.26812 13.7447L6.1083 10.9993C6.11992 10.9606 6.14146 10.9256 6.17077 10.8977C6.20007 10.8698 6.23615 10.85 6.27542 10.8404C7.35158 10.5849 8.45472 10.4608 9.56065 10.4707C10.6667 10.4608 11.7697 10.585 12.8458 10.8404C12.8851 10.85 12.9213 10.8698 12.9506 10.8977C12.9799 10.9256 13.0015 10.9607 13.0131 10.9995L13.8533 13.7449C13.8684 13.7942 13.8977 13.8378 13.9375 13.8704L14.6783 14.4754C14.7622 14.5438 14.8297 14.63 14.8761 14.7279C14.9224 14.8257 14.9464 14.9326 14.9461 15.0408L14.9456 17.049Z" fill="#616161"/>
<path d="M6.00331 13.8549C7.18341 14.0001 8.37195 14.0663 9.56095 14.0533C10.7499 14.0663 11.9383 14.0001 13.1185 13.8549C13.1559 13.8498 13.1918 13.8366 13.2236 13.8163C13.2554 13.7959 13.2825 13.7688 13.3028 13.737C13.3231 13.7052 13.3363 13.6693 13.3414 13.6319C13.3465 13.5945 13.3434 13.5563 13.3323 13.5203L12.6767 11.3774C12.6632 11.3331 12.6381 11.2932 12.6041 11.2619C12.5701 11.2305 12.5285 11.2087 12.4832 11.1988C11.5223 10.9968 10.5427 10.8979 9.56095 10.9036C8.57901 10.8972 7.59935 10.9961 6.63857 11.1988C6.59339 11.2087 6.55167 11.2305 6.51767 11.2619C6.48368 11.2933 6.45864 11.3331 6.44513 11.3774L5.78947 13.5203C5.77843 13.5563 5.77537 13.5943 5.78048 13.6318C5.7856 13.6691 5.79879 13.705 5.81913 13.7367C5.83947 13.7685 5.86647 13.7956 5.89828 13.8159C5.93008 13.8361 5.96592 13.8499 6.00331 13.8549ZM6.89868 11.6763C7.77548 11.5039 8.66735 11.4194 9.56095 11.4243C10.4547 11.4201 11.3467 11.5049 12.2237 11.6774L12.7436 13.3769C11.6865 13.4889 10.6239 13.5408 9.56095 13.5325C8.49788 13.5409 7.43528 13.4891 6.37817 13.3772L6.89868 11.6763Z" fill="#616161"/>
<path d="M10.674 15.2832H8.44727C8.3738 15.2832 8.30127 15.2995 8.23494 15.331C8.1686 15.3625 8.11007 15.4083 8.06367 15.4653C8.01727 15.5223 7.98414 15.5887 7.9666 15.6601C7.94914 15.7314 7.94774 15.8058 7.9626 15.8777L8.10487 16.5697C8.12807 16.6811 8.18887 16.7813 8.27707 16.8532C8.36534 16.9252 8.47567 16.9647 8.58954 16.9649H10.5317C10.6457 16.9647 10.7559 16.9252 10.8442 16.8532C10.9325 16.7813 10.9933 16.6811 11.0165 16.5697L11.1587 15.8777C11.1735 15.8058 11.1721 15.7314 11.1547 15.6601C11.1372 15.5887 11.104 15.5223 11.0577 15.4653C11.0113 15.4083 10.9527 15.3625 10.8864 15.331C10.82 15.2995 10.7475 15.2832 10.674 15.2832ZM8.47894 15.8041H9.30027V16.4439H8.61067L8.47894 15.8041ZM10.5107 16.4439H9.82107V15.8041H10.6423L10.5107 16.4439Z" fill="#616161"/>
<path d="M14.3099 15.3028C14.2133 15.2288 14.101 15.1782 13.9815 15.1552C13.862 15.1322 13.7389 15.1374 13.6218 15.1703L12.6809 15.4312C12.5455 15.469 12.4263 15.55 12.3413 15.6619C12.2562 15.7738 12.21 15.9104 12.2097 16.051V16.3066C12.2099 16.4772 12.2778 16.6407 12.3984 16.7612C12.519 16.8818 12.6825 16.9496 12.8531 16.9497H13.978C14.1484 16.9494 14.3117 16.8814 14.4321 16.7608C14.5525 16.6403 14.6202 16.477 14.6205 16.3066V15.9301C14.621 15.8086 14.5931 15.6887 14.5393 15.5797C14.4853 15.4708 14.4068 15.376 14.3099 15.3028ZM14.1001 16.3066C14.1 16.339 14.0871 16.3702 14.0641 16.3932C14.0411 16.416 14.01 16.429 13.9777 16.429H12.8526C12.8201 16.429 12.789 16.416 12.766 16.3932C12.7431 16.3702 12.7302 16.339 12.7301 16.3066V16.051C12.7302 16.0243 12.7389 15.9983 12.755 15.977C12.7711 15.9558 12.7937 15.9404 12.8195 15.933L13.7605 15.6722C13.784 15.6657 13.8083 15.6625 13.8327 15.6624C13.9035 15.6627 13.9715 15.691 14.0215 15.7412C14.0715 15.7914 14.0997 15.8594 14.0997 15.9303L14.1001 16.3066Z" fill="#616161"/>
<path d="M6.4412 15.4312L5.49998 15.1702C5.38292 15.138 5.25998 15.1331 5.14074 15.1562C5.0215 15.1792 4.90918 15.2294 4.81255 15.3029C4.71591 15.3764 4.63756 15.4713 4.5836 15.5802C4.52964 15.6889 4.50153 15.8087 4.50146 15.9302V16.3066C4.50166 16.4771 4.56951 16.6406 4.69011 16.7612C4.81072 16.8818 4.97422 16.9496 5.14476 16.9498H6.26976C6.44031 16.9496 6.60383 16.8818 6.7244 16.7612C6.84507 16.6406 6.91286 16.4771 6.91306 16.3066V16.0509C6.91273 15.9104 6.86646 15.7737 6.78126 15.6618C6.69606 15.5498 6.57667 15.4689 6.4412 15.4312ZM6.3918 16.3066C6.39175 16.3391 6.37883 16.3702 6.35587 16.3931C6.33291 16.416 6.30178 16.4289 6.26932 16.4289H5.14432C5.11186 16.4289 5.08074 16.416 5.05778 16.3931C5.03482 16.3702 5.02189 16.3391 5.02185 16.3066V15.9302C5.02185 15.8592 5.04995 15.7912 5.09998 15.741C5.15003 15.6908 5.21793 15.6625 5.28882 15.6622C5.31316 15.6622 5.33738 15.6656 5.36084 15.672L6.30206 15.9331C6.32774 15.9404 6.35035 15.9558 6.36646 15.977C6.38258 15.9984 6.39131 16.0242 6.39135 16.0509L6.3918 16.3066Z" fill="#616161"/>
<path d="M13.5968 1.96533C12.7885 1.96812 12.0124 2.28252 11.43 2.8431C10.8478 3.40369 10.504 4.16725 10.4705 4.97485C10.4369 5.78247 10.7162 6.57191 11.25 7.17887C11.7838 7.78579 12.5311 8.16353 13.3364 8.23333V9.46133C13.3364 9.53039 13.3638 9.59666 13.4127 9.64546C13.4616 9.69433 13.5278 9.72173 13.5968 9.72173C13.6658 9.72173 13.7322 9.69433 13.781 9.64546C13.8298 9.59666 13.8573 9.53039 13.8573 9.46133V8.23333C14.6625 8.16353 15.4098 7.78579 15.9438 7.17887C16.4776 6.57191 16.7567 5.78247 16.7232 4.97485C16.6897 4.16725 16.346 3.40369 15.7636 2.8431C15.1812 2.28252 14.4051 1.96812 13.5968 1.96533ZM13.5968 5.48572C13.433 5.48575 13.2727 5.43718 13.1364 5.34615C13.0002 5.25513 12.894 5.12573 12.8312 4.97433C12.7685 4.82293 12.752 4.65633 12.784 4.4956C12.816 4.33485 12.8949 4.18721 13.0107 4.07131C13.1266 3.95543 13.2742 3.87649 13.435 3.84451C13.5958 3.81253 13.7624 3.82893 13.9138 3.89163C14.0652 3.95434 14.1945 4.06054 14.2856 4.19681C14.3766 4.33307 14.4253 4.49327 14.4253 4.65715C14.425 4.87681 14.3377 5.0874 14.1824 5.24272C14.0271 5.39805 13.8165 5.48545 13.5968 5.48572ZM13.0611 5.8948C13.2302 5.96838 13.4125 6.00635 13.5968 6.00635C13.7812 6.00635 13.9636 5.96838 14.1325 5.8948L14.9565 6.07709C15.043 6.09675 15.1204 6.14511 15.1758 6.21431C15.2314 6.28351 15.2618 6.36947 15.2624 6.45819V7.1262C14.7937 7.5136 14.2046 7.72553 13.5965 7.72553C12.9885 7.72553 12.3995 7.5136 11.9308 7.1262V6.45805C11.9304 6.36909 11.9604 6.28269 12.0162 6.21331C12.0718 6.14392 12.1497 6.09578 12.2365 6.07694L13.0611 5.8948ZM15.7844 6.54509V6.45834C15.7854 6.25063 15.715 6.04887 15.5849 5.88691C15.4549 5.72495 15.2731 5.61262 15.07 5.56876L14.6651 5.47947C14.8194 5.2799 14.9146 5.04109 14.94 4.79013C14.9654 4.53918 14.9198 4.28613 14.8087 4.05971C14.6976 3.83331 14.5252 3.64258 14.3111 3.50919C14.097 3.37581 13.8498 3.3051 13.5976 3.3051C13.3454 3.3051 13.0982 3.37581 12.884 3.50919C12.67 3.64258 12.4976 3.83331 12.3864 4.05971C12.2753 4.28613 12.2298 4.53918 12.2552 4.79013C12.2805 5.04109 12.3758 5.2799 12.53 5.47947L12.1251 5.56876C11.922 5.6126 11.7402 5.72491 11.6102 5.88689C11.4802 6.04885 11.4098 6.25063 11.4108 6.45834V6.5454C11.1502 6.15047 11.0014 5.69234 10.9802 5.21963C10.9589 4.74692 11.0662 4.27731 11.2904 3.86063C11.5146 3.44395 11.8475 3.09578 12.2537 2.85309C12.6598 2.6104 13.1242 2.48225 13.5975 2.48225C14.0706 2.48225 14.535 2.6104 14.9412 2.85309C15.3474 3.09578 15.6802 3.44395 15.9045 3.86063C16.1287 4.27731 16.236 4.74692 16.2147 5.21963C16.1936 5.69234 16.045 6.15017 15.7844 6.54509Z" fill="#616161"/>
<path d="M5.26449 9.4613C5.26449 9.53036 5.29193 9.59663 5.34077 9.64543C5.38961 9.6943 5.45584 9.7217 5.52491 9.7217C5.59397 9.7217 5.66021 9.6943 5.70905 9.64543C5.75789 9.59663 5.78532 9.53036 5.78532 9.4613V8.2333C6.59292 8.1661 7.34327 7.78936 7.87953 7.1818C8.4158 6.57422 8.69647 5.78288 8.6628 4.9732C8.6292 4.16351 8.28387 3.39816 7.69907 2.83716C7.11433 2.27614 6.33529 1.96289 5.52491 1.96289C4.71452 1.96289 3.93551 2.27614 3.35071 2.83716C2.76592 3.39816 2.42061 4.16351 2.38699 4.9732C2.35335 5.78288 2.63401 6.57422 3.17027 7.1818C3.70654 7.78936 4.4569 8.1661 5.26449 8.2333V9.4613ZM5.52491 5.48571C5.36103 5.48574 5.20081 5.43716 5.06454 5.34614C4.92826 5.25512 4.82203 5.12572 4.7593 4.97432C4.69657 4.82292 4.68014 4.65632 4.71209 4.49558C4.74404 4.33484 4.82295 4.1872 4.93881 4.0713C5.05469 3.9554 5.20233 3.87648 5.36305 3.8445C5.52379 3.81252 5.69039 3.82892 5.84181 3.89162C5.99321 3.95433 6.12262 4.06053 6.21368 4.1968C6.30473 4.33305 6.35333 4.49325 6.35333 4.65714C6.35305 4.87678 6.26569 5.08735 6.11039 5.24267C5.9551 5.398 5.74455 5.4854 5.52491 5.48571ZM4.98919 5.89494C5.15821 5.96852 5.34057 6.00649 5.52491 6.00649C5.70924 6.00649 5.89161 5.96852 6.06063 5.89494L6.8846 6.07738C6.97153 6.09622 7.04933 6.14434 7.105 6.21373C7.16067 6.28311 7.1908 6.36952 7.1904 6.45848V7.12663C6.72173 7.51403 6.13266 7.72596 5.52461 7.72596C4.91655 7.72596 4.32751 7.51403 3.85883 7.12663V6.45833C3.85928 6.3696 3.88975 6.28365 3.94528 6.21445C4.00081 6.14525 4.07812 6.09688 4.16464 6.07722L4.98919 5.89494ZM2.90586 5.10624C2.90535 4.69767 3.00041 4.29464 3.18344 3.92936C3.36648 3.56407 3.63241 3.24666 3.95999 3.00249C4.28759 2.75831 4.66774 2.59415 5.07009 2.5231C5.47243 2.45205 5.88582 2.47609 6.27722 2.59331C6.6686 2.71052 7.0272 2.91765 7.32427 3.19816C7.62133 3.47866 7.84867 3.82476 7.98813 4.2088C8.1276 4.59284 8.17527 5.00418 8.1274 5.40994C8.07953 5.8157 7.9374 6.20464 7.7124 6.54568V6.45862C7.71347 6.25091 7.64307 6.04914 7.513 5.88716C7.38293 5.7252 7.20113 5.61288 6.99813 5.56904L6.59335 5.47976C6.74767 5.28016 6.84293 5.04133 6.86833 4.79033C6.89373 4.53934 6.84827 4.28624 6.73713 4.05978C6.62596 3.83331 6.45353 3.64255 6.23941 3.50913C6.0253 3.37572 5.77808 3.305 5.52579 3.305C5.27352 3.305 5.02629 3.37572 4.81217 3.50913C4.59806 3.64255 4.42564 3.83331 4.31447 4.05978C4.2033 4.28624 4.15784 4.53934 4.18326 4.79033C4.20867 5.04133 4.30394 5.28016 4.45824 5.47976L4.05333 5.56904C3.8503 5.6129 3.66852 5.72523 3.53847 5.8872C3.40843 6.04916 3.33801 6.25091 3.33904 6.45862V6.54538C3.05595 6.1187 2.90575 5.61829 2.90586 5.10624Z" fill="#616161"/>
</svg>
