<svg width="27" height="32" viewBox="0 0 27 32" fill="none" xmlns="http://www.w3.org/2000/svg">
<mask id="mask0_192_358" style="mask-type:luminance" maskUnits="userSpaceOnUse" x="0" y="2" width="27" height="27">
<path d="M26.7198 2.6333H0.537964V28.8151H26.7198V2.6333Z" fill="white"/>
</mask>
<g mask="url(#mask0_192_358)">
<path d="M7.04259 15.0699L4.95623 14.6199C4.3835 14.4972 3.85168 14.9472 3.85168 15.5199V16.379C3.85168 17.0745 4.3835 17.2381 5.03805 17.2381H7.32896C7.77896 17.2381 8.22894 17.1563 8.22894 16.6654V16.5427C8.22894 15.8063 7.73805 15.1927 7.04259 15.0699ZM4.62896 16.379C4.62896 16.3381 4.62896 16.3381 4.62896 15.479C4.62896 15.3972 4.71078 15.3154 4.79259 15.3563L6.87896 15.8063C7.16532 15.8881 7.36987 16.1336 7.41078 16.4199C5.97896 16.4199 4.75168 16.4199 4.62896 16.379Z" fill="black"/>
<path d="M25.6153 10.6925L22.6698 9.30156C21.688 8.85156 20.6244 8.68793 19.6016 8.89247L19.1516 7.99247C18.8244 7.17429 18.0471 6.60156 17.1471 6.60156H7.57433C6.67433 6.60156 5.89705 7.13338 5.56978 7.95156L3.97433 11.2652C3.60614 10.7334 2.99251 10.4061 2.33796 10.4061H1.64251C1.02887 10.4061 0.537964 10.897 0.537964 11.5107V11.9607C0.537964 12.5743 1.02887 13.0652 1.64251 13.0652H2.70615C2.25615 13.6379 2.0516 14.3743 2.0516 15.1107V17.5652C2.0516 18.5061 2.37887 19.4061 3.03342 20.1834V22.0243C3.03342 22.8425 3.68796 23.497 4.50614 23.497H6.01978C6.83796 23.497 7.49251 22.8425 7.49251 22.0243V21.2879H15.6744C17.4743 23.7425 20.2971 24.8061 20.338 24.8061C20.4198 24.847 20.5016 24.847 20.6244 24.8061C20.6653 24.7652 26.7198 22.5561 26.7198 17.0334V12.4516C26.7198 11.7152 26.2698 11.0198 25.6153 10.6925ZM6.30614 8.27884C6.51069 7.74702 7.0016 7.41974 7.57433 7.41974H17.1471C17.7198 7.41974 18.2107 7.74702 18.4562 8.31974L18.8244 9.09702C18.6607 9.13793 18.4971 9.21974 18.3334 9.30156L15.388 10.6925C14.7334 11.0198 14.2834 11.6743 14.2834 12.4107H4.26069C4.42433 12.1652 4.26069 12.5743 6.30614 8.27884ZM1.35614 11.9607V11.5107C1.35614 11.347 1.47887 11.2243 1.64251 11.2243H2.33796C3.15614 11.2243 3.44251 11.9607 3.52433 12.0834C3.48342 12.1652 3.44251 12.2061 3.36069 12.2879H1.64251C1.47887 12.247 1.35614 12.1243 1.35614 11.9607ZM6.67433 21.9834C6.67433 22.3516 6.38796 22.6379 6.01978 22.6379H4.46524C4.09705 22.6789 3.81069 22.3516 3.81069 21.9834V20.797C4.3016 21.0834 4.87433 21.247 5.44705 21.247H6.67433V21.9834ZM5.40614 20.4698C3.93342 20.4698 2.78796 19.0379 2.78796 17.5243V15.0698C2.78796 14.3743 3.07433 13.7198 3.56524 13.1879H14.2834V16.7879H9.78344C9.5789 16.7879 9.37435 16.9516 9.37435 17.197C9.37435 17.4425 9.53799 17.6061 9.78344 17.6061H14.3244C14.3653 17.8925 14.3653 18.1379 14.4471 18.3834H9.78344C9.5789 18.3834 9.37435 18.547 9.37435 18.7925C9.37435 19.0379 9.53799 19.2016 9.78344 19.2016H14.6107C14.7744 19.6516 14.938 20.1016 15.1834 20.4698H5.40614ZM25.9016 17.0334C25.9016 21.5743 21.3198 23.6607 20.5016 23.9879C17.5562 22.8016 15.1016 20.2652 15.1016 17.0334C15.1016 15.5198 15.1016 14.7016 15.1016 12.4516C15.1016 12.0016 15.3471 11.6334 15.7562 11.4289L18.7016 10.0379C19.888 9.4652 21.1971 9.4652 22.3834 10.0379L25.3289 11.4289C25.6971 11.6334 25.9834 12.0016 25.9834 12.4516V17.0334H25.9016Z" fill="black"/>
<path d="M24.5106 12.3699L21.8106 11.1017C20.9924 10.6926 19.9697 10.6926 19.1515 11.1017L16.4924 12.3699C16.3697 12.4517 16.2469 12.5745 16.2469 12.7381V17.0336C16.2469 20.2654 19.0697 22.0245 20.2969 22.6381C20.4197 22.679 20.5424 22.679 20.6651 22.6381C21.8924 22.0245 24.7151 20.2654 24.7151 17.0336V12.7381C24.7151 12.5745 24.6333 12.4517 24.5106 12.3699ZM23.9379 17.0336C23.9379 19.6517 21.6469 21.2063 20.5015 21.8199C19.1515 21.0836 17.0651 19.6108 17.0651 17.0336V12.9836L19.5197 11.7972C20.1333 11.5108 20.8697 11.5108 21.4833 11.7972L23.9379 12.9836V17.0336Z" fill="black"/>
<path d="M18.9061 16.9109C18.7424 16.7882 18.497 16.8291 18.3333 16.9927C18.1697 17.1564 18.2515 17.4018 18.4152 17.5655L19.9697 18.7518C20.1333 18.8745 20.3788 18.8336 20.5424 18.67L22.8333 15.6836C22.9561 15.52 22.9152 15.2745 22.7515 15.1109C22.5879 14.9882 22.3424 15.0291 22.1788 15.1927L20.1333 17.8518L18.9061 16.9109Z" fill="#3DBEC8"/>
</g>
</svg>
