<svg width="75" height="81" viewBox="0 0 75 81" fill="none" xmlns="http://www.w3.org/2000/svg">
<rect opacity="0.1" y="0.140015" width="60" height="60" rx="30" fill="#3DBEC8"/>
<mask id="mask0_192_103" style="mask-type:luminance" maskUnits="userSpaceOnUse" x="10" y="9" width="65" height="66">
<path d="M75 9.96851H10V74.9685H75V9.96851Z" fill="white"/>
</mask>
<g mask="url(#mask0_192_103)">
<path d="M25.9429 71.2192H31.5777C34.8442 71.2192 34.849 66.1299 31.5777 66.1299H25.9429C22.6766 66.1299 22.6717 71.2192 25.9429 71.2192ZM25.9429 68.0342H31.5777C32.4055 68.0342 32.4055 69.3149 31.5777 69.3149H25.9429C25.1153 69.3149 25.1153 68.0342 25.9429 68.0342Z" fill="#3DBEC8"/>
<path d="M32.9352 42.695L26.7325 48.8979L24.5843 46.7496C23.7135 45.8795 22.3672 47.2256 23.2377 48.0963L26.0592 50.9178C26.5081 51.2895 26.957 51.2895 27.4058 50.9178L34.2819 44.0417C35.1523 43.171 33.806 41.8249 32.9352 42.695Z" fill="#3DBEC8"/>
<path d="M74.2919 52.0911C73.9075 51.3573 73.6289 50.5534 73.4397 49.7466C72.5112 45.8626 71.1005 42.0997 69.2474 38.5623L66.1488 32.6481C64.3948 29.2998 59.2184 29.8565 58.2411 33.5288C55.923 32.6949 53.3062 34.0656 52.6724 36.4463C50.7561 35.7567 48.5431 36.5689 47.5271 38.3314V17.4236V13.6886C47.527 11.6374 45.8581 9.96851 43.8068 9.96851H21.6255C20.3944 9.96851 20.3944 11.8728 21.6255 11.8728H43.8068C44.808 11.8728 45.6226 12.6873 45.6226 13.6886V16.4714H11.9043V13.6886C11.9043 12.6873 12.7188 11.8728 13.7201 11.8728H16.2936C17.5246 11.8728 17.5246 9.96851 16.2936 9.96851H13.7201C11.6689 9.96851 10 11.6374 10 13.6886V17.4236V63.3152V71.2484C10 73.2996 11.6689 74.9685 13.7201 74.9685H43.8068C45.858 74.9685 47.527 73.2996 47.527 71.2484V63.3152V59.5014L50.9294 61.1843C51.7702 61.6002 52.4613 62.2926 52.8754 63.1343C54.3869 66.206 58.261 67.4794 61.3041 65.885L66.977 62.913C68.0675 62.3417 67.1838 60.6551 66.0932 61.2262L60.4203 64.1982C58.3132 65.3027 55.6345 64.428 54.584 62.2935C53.9859 61.0782 52.988 60.0781 51.7737 59.4773L37.3349 52.3354C34.6231 51.0183 36.5842 46.764 39.3384 48.0485L44.5811 50.8083C45.3899 51.2341 46.2921 50.3338 45.868 49.5241L36.7604 32.1401C35.265 29.3286 39.2699 26.7334 40.7975 29.6498L47.2351 41.9374L48.9166 45.147C49.4716 46.2069 51.1732 45.351 50.6034 44.2632L48.9664 41.1386C48.3034 38.9294 51.0307 37.1483 52.7862 38.6883L54.6077 42.1653C55.1628 43.2252 56.8644 42.3693 56.2946 41.2817L54.4423 37.7463C54.269 35.7151 56.7563 34.408 58.3286 35.7477L60.1621 39.2476C60.7171 40.3075 62.4187 39.4515 61.8489 38.3639L60.0151 34.8635C59.7656 32.3708 63.274 31.2641 64.4617 33.5316L67.5603 39.4458C69.3404 42.8438 70.6954 46.4584 71.5875 50.1889C71.8039 51.1566 72.1446 52.0959 72.6049 52.9745C73.702 55.0685 72.8908 57.6646 70.797 58.7616C69.7065 59.3332 70.5905 61.02 71.6807 60.4485C74.7049 58.8642 75.8763 55.1151 74.2919 52.0911ZM45.6226 71.2484C45.6226 72.2497 44.808 73.0642 43.8068 73.0642H13.7201C12.7188 73.0642 11.9043 72.2497 11.9043 71.2484V64.2674H45.6226V71.2484ZM34.4819 48.3587C33.8356 49.7172 33.9611 51.3445 34.8033 52.5906C33.2287 54.2383 31.0685 55.1721 28.7634 55.1721C24.1509 55.1721 20.3985 51.4196 20.3985 46.8071C20.3985 42.1946 24.1509 38.4422 28.7634 38.4422C33.1399 38.4422 36.7398 41.8212 37.0967 46.107C35.969 46.451 34.9888 47.2927 34.4819 48.3587ZM41.3953 27.4327C40.9801 27.0957 40.5012 26.8364 39.9753 26.6721C36.9254 25.7191 33.8538 28.5158 34.525 31.6392H16.449C16.2739 31.6392 16.1316 31.4969 16.1316 31.3218V24.5174C16.1316 24.3423 16.2739 24.1999 16.449 24.1999H41.0779C41.253 24.1999 41.3953 24.3423 41.3953 24.5174V27.4327ZM45.6226 34.7564L43.2996 30.3223V24.5174C43.2996 23.2924 42.3028 22.2957 41.0779 22.2957H16.449C15.224 22.2957 14.2273 23.2924 14.2273 24.5174V31.3219C14.2273 32.5469 15.224 33.5436 16.449 33.5436H35.3457L42.7619 47.699L40.2068 46.3539C40.1956 46.348 40.184 46.3421 40.1725 46.3366C39.7942 46.1567 39.3984 46.0353 38.9958 45.972C38.569 40.699 34.1444 36.5379 28.7636 36.5379C23.101 36.5379 18.4943 41.1446 18.4943 46.8071C18.4943 52.4696 23.101 57.0764 28.7636 57.0764C31.6035 57.0764 34.2664 55.9247 36.201 53.8886C39.2217 55.6293 42.4972 57.0135 45.6226 58.5594V62.3629H11.9043V18.3757H45.6226V34.7564Z" fill="#040401"/>
</g>
</svg>
